<?xml version="1.0" standalone="no"?>
<!DOCTYPE svg PUBLIC "-//W3C//DTD SVG 20010904//EN"
 "http://www.w3.org/TR/2001/REC-SVG-20010904/DTD/svg10.dtd">
<svg version="1.0" xmlns="http://www.w3.org/2000/svg"
 width="512.000000pt" height="512.000000pt" viewBox="0 0 512.000000 512.000000"
 preserveAspectRatio="xMidYMid meet">
<metadata>
Created by potrace 1.16, written by Peter Selinger 2001-2019
</metadata>
<g transform="translate(0.000000,512.000000) scale(0.100000,-0.100000)"
fill="#000000" stroke="none">
<path d="M0 2560 l0 -2560 2560 0 2560 0 0 2560 0 2560 -2560 0 -2560 0 0
-2560z m4820 1810 l0 -450 -2260 0 -2260 0 0 450 0 450 2260 0 2260 0 0 -450z
m0 -2410 l0 -1660 -2260 0 -2260 0 0 1660 0 1660 2260 0 2260 0 0 -1660z"/>
<path d="M600 4370 l0 -150 150 0 150 0 0 150 0 150 -150 0 -150 0 0 -150z"/>
<path d="M1200 4370 l0 -150 150 0 150 0 0 150 0 150 -150 0 -150 0 0 -150z"/>
<path d="M1800 4370 l0 -150 150 0 150 0 0 150 0 150 -150 0 -150 0 0 -150z"/>
<path d="M2372 3301 c-40 -10 -112 -38 -160 -61 -72 -36 -104 -60 -183 -139
-83 -83 -102 -109 -142 -191 -66 -138 -80 -209 -75 -372 6 -149 26 -223 94
-347 57 -102 197 -236 304 -289 219 -109 473 -111 689 -6 l74 36 216 -216 216
-216 113 112 112 113 -217 217 -217 217 28 50 c57 106 78 186 83 328 7 161 -8
235 -75 373 -40 82 -59 108 -141 190 -78 78 -112 104 -181 138 -120 60 -218
82 -354 81 -71 0 -138 -7 -184 -18z m371 -328 c90 -43 177 -129 220 -220 30
-64 32 -74 32 -183 0 -109 -2 -119 -32 -183 -43 -91 -129 -177 -220 -220 -64
-30 -74 -32 -183 -32 -109 0 -119 2 -183 32 -91 43 -177 129 -220 220 -30 64
-32 74 -32 183 0 109 2 119 32 183 37 78 125 172 193 207 81 42 120 50 225 47
89 -2 108 -6 168 -34z"/>
<path d="M600 3150 l0 -150 450 0 450 0 0 150 0 150 -450 0 -450 0 0 -150z"/>
<path d="M3920 3150 l0 -150 300 0 300 0 0 150 0 150 -300 0 -300 0 0 -150z"/>
<path d="M600 2550 l0 -150 450 0 450 0 0 150 0 150 -450 0 -450 0 0 -150z"/>
<path d="M3920 2550 l0 -150 300 0 300 0 0 150 0 150 -300 0 -300 0 0 -150z"/>
<path d="M600 1950 l0 -150 450 0 450 0 0 150 0 150 -450 0 -450 0 0 -150z"/>
<path d="M600 1350 l0 -150 980 0 980 0 0 150 0 150 -980 0 -980 0 0 -150z"/>
<path d="M600 750 l0 -150 1510 0 1510 0 0 150 0 150 -1510 0 -1510 0 0 -150z"/>
<path d="M3920 750 l0 -150 300 0 300 0 0 150 0 150 -300 0 -300 0 0 -150z"/>
</g>
</svg>
